<?xml version="1.0" encoding="utf-8"?>
<?xml-stylesheet type="text/xsl" href="rss1.xsl"?>
<rss version="2.0" xmlns:atom="http://www.w3.org/2005/Atom" xmlns:content="http://purl.org/rss/1.0/modules/content/" xmlns:dc="http://purl.org/dc/elements/1.1/" xmlns:media="http://search.yahoo.com/mrss/">
<channel>
 <title>Getty</title>
 <link>http://www.gettyimg.com/</link>
 <atom:link href="http://www.gettyimg.com/" rel="self" type="application/rss+xml" />

 
                <item>
                <title><![CDATA[【Albums (lossless)】FLAC - BEBEL GILBERTO - 2023 - João [24Bit-48kHz]]]></title>
                <link><![CDATA[https://sharemania.us/threads/bebel-gilberto-2023-jo%C3%A3o-24bit-48khz.226953/]]></link>
                <description><![CDATA[<article>
<blockquote class="messageText SelectQuoteContainer ugc baseHtml">
<div style="text-align: center"><br>
<img src="https://imgur.com/99CskQE" class="bbCodeImage LbImage" alt="[​IMG]" data-url="https://imgur.com/99CskQE" style=""> <br>
<br>
​</div><b><div style="text-align: center"><b>Performer:</b> <b>Bebel Gilberto<br>
Album:</b> <b>João<br>
Published:</b> 2023<br>
<b>Genre:</b> Bossa Nova, Latin Jazz, MBP<br>
<b>File Size:</b> 463 Mb​</div></b><br>
<div style="text-align: center">​</div><b><div style="text-align: center"><b>Track listing:</b>​</div></b><br>
<div style="text-align: center">1. Adeus América (3:50)<br>
2. Eu Vim Da Bahia (3:21)<br>
3. É Preciso Perdoar (4:06)<br>
4. Undiú (3:10)<br>
5. Ela E Carioca (3:38)<br>
6. O Pato (2:35)<br>
7. Caminhos Cruzados (6:03)<br>
8. Desafinado (3:59)<br>
9. Valsa (2:57)<br>
10. Eclipse (2:47)<br>
11. Você e Eu (3:37)<br>
<br>
<a href="https://workupload.com/file/ppjKr3UaAXP" target="_blank" class="externalLink" rel="nofollow">https://workupload.com/file/ppjKr3UaAXP</a>​</div>
<div class="messageTextEndMarker">&nbsp;</div>
</blockquote>
</article>]]></description>
                <author><![CDATA[XRB80]]></author>
                </item>

                
                <item>
                <title><![CDATA[【UPSCALED】The Saturdays - All Fired Up (4K-AI-REMASTERED-H.265-60fps)]]></title>
                <link><![CDATA[https://sharemania.us/threads/the-saturdays-all-fired-up-4k-ai-remastered-h-265-60fps.226952/]]></link>
                <description><![CDATA[<article>
<blockquote class="messageText SelectQuoteContainer ugc baseHtml">
<img src="https://i.imgur.com/HD7Wlhr.png" class="bbCodeImage LbImage" alt="[​IMG]" data-url="https://i.imgur.com/HD7Wlhr.png" style=""><br>
<img src="https://i.imgur.com/VPVySwF.png" class="bbCodeImage LbImage" alt="[​IMG]" data-url="https://i.imgur.com/VPVySwF.png" style=""><br>
<img src="https://i.imgur.com/wjcwR8u.png" class="bbCodeImage LbImage" alt="[​IMG]" data-url="https://i.imgur.com/wjcwR8u.png" style=""><br>
<br>
<div class="bbCodeBlock bbCodeCode">
<div class="type">Code:</div>
<pre>General
Format                                   : MPEG-4
Format profile                           : Base Media / Version 2
Codec ID                                 : mp42 (mp42/iso2/mp41)
File size                                : 393 MiB
Duration                                 : 3 min 22 s
Overall bit rate                         : 16.2 Mb/s
Frame rate                               : 60.000 FPS

Video
ID                                       : 1
Format                                   : HEVC
Format/Info                              : High Efficiency Video Coding
Format profile                           : Main@L5.1@Main
Codec ID                                 : hvc1
Codec ID/Info                            : High Efficiency Video Coding
Duration                                 : 3 min 22 s
Bit rate                                 : 15.8 Mb/s
Width                                    : 3 840 pixels
Height                                   : 1 604 pixels
Display aspect ratio                     : 2.40:1
Frame rate mode                          : Constant
Frame rate                               : 60.000 FPS
Color space                              : YUV
Chroma subsampling                       : 4:2:0 (Type 0)
Bit depth                                : 8 bits
Bits/(Pixel*Frame)                       : 0.043
Stream size                              : 381 MiB (97%)
Writing library                          : x265 3.5+1-f0c1022b6
Color range                              : Limited
Color primaries                          : BT.709
Transfer characteristics                 : BT.709
Matrix coefficients                      : BT.709
Codec configuration box                  : hvcC

Audio
ID                                       : 2
Format                                   : AAC LC
Format/Info                              : Advanced Audio Codec Low Complexity
Codec ID                                 : mp4a-40-2
Duration                                 : 3 min 22 s
Source duration                          : 3 min 22 s
Bit rate mode                            : Constant
Bit rate                                 : 448 kb/s
Channel(s)                               : 2 channels
Channel layout                           : L R
Sampling rate                            : 48.0 kHz
Frame rate                               : 46.875 FPS (1024 SPF)
Compression mode                         : Lossy
Stream size                              : 10.8 MiB (3%)
Source stream size                       : 10.8 MiB (3%)
Title                                    : Stereo / Stereo</pre>
</div>
<div class="bbCodeBlock bbCodeVfcHH HiddenContent">
<div class="attribution type">Hidden Content:</div>
<blockquote>You must reply before you can see the hidden data contained here.</blockquote>
</div>
<div class="messageTextEndMarker">&nbsp;</div>
</blockquote>
</article>]]></description>
                <author><![CDATA[Librious]]></author>
                </item>

                </channel></rss>